<?xml version="1.0" standalone="no"?>
<!DOCTYPE svg PUBLIC "-//W3C//DTD SVG 20010904//EN"
 "http://www.w3.org/TR/2001/REC-SVG-20010904/DTD/svg10.dtd">
<svg version="1.0" xmlns="http://www.w3.org/2000/svg" viewBox="0 0 512.000000 512.000000"
 preserveAspectRatio="xMidYMid meet">

<g transform="translate(0.000000,512.000000) scale(0.100000,-0.100000)"
fill="" stroke="none">
<path d="M475 4691 c-35 -73 -84 -220 -107 -322 -20 -91 -23 -130 -23 -319 0
-220 12 -316 60 -472 l14 -48 -43 -53 c-153 -187 -285 -477 -335 -738 -73
-382 -42 -908 74 -1257 106 -316 319 -573 611 -738 144 -81 480 -204 678 -249
346 -77 916 -114 1478 -95 717 24 1217 140 1552 360 435 285 626 647 676 1284
46 592 -73 1064 -361 1433 l-49 62 19 63 c47 153 55 225 56 448 0 173 -4 232
-19 300 -24 110 -61 228 -98 311 l-30 67 -66 -4 c-367 -22 -608 -126 -1029
-444 l-63 -47 -59 13 c-473 110 -1129 111 -1628 4 -51 -11 -101 -20 -112 -20
-11 0 -59 30 -108 67 -113 85 -284 198 -393 258 -191 105 -367 154 -611 169
l-66 3 -18 -36z m1440 -2077 c541 -67 748 -68 1250 -5 468 59 554 60 714 14
148 -42 261 -122 361 -254 116 -155 176 -327 187 -541 10 -194 -21 -363 -95
-521 -93 -200 -215 -323 -418 -425 -156 -78 -394 -144 -634 -174 -149 -19
-1291 -19 -1440 0 -315 40 -591 130 -770 252 -63 43 -161 143 -209 213 -120
176 -181 412 -168 655 11 214 71 386 187 541 120 159 273 250 473 281 80 13
256 1 562 -36z"/>
<path d="M1485 2347 c-91 -36 -160 -105 -220 -218 -100 -190 -105 -491 -11
-693 106 -231 314 -317 483 -200 228 157 301 600 146 897 -49 95 -141 188
-207 210 -57 19 -147 21 -191 4z"/>
<path d="M3440 2343 c-62 -23 -156 -120 -203 -210 -55 -105 -80 -214 -80 -353
-3 -514 389 -787 645 -448 120 158 164 417 109 642 -38 159 -136 304 -237 356
-62 31 -168 37 -234 13z"/>
</g>
</svg>
