<?xml version="1.0" standalone="no"?>
<!DOCTYPE svg PUBLIC "-//W3C//DTD SVG 20010904//EN"
 "http://www.w3.org/TR/2001/REC-SVG-20010904/DTD/svg10.dtd">
<svg version="1.0" xmlns="http://www.w3.org/2000/svg" viewBox="0 0 512.000000 512.000000"
 preserveAspectRatio="xMidYMid meet">

<g transform="translate(0.000000,512.000000) scale(0.100000,-0.100000)"
fill="" stroke="none">
<path d="M374 4465 c-89 -19 -160 -59 -230 -129 -71 -71 -110 -141 -130 -235
-21 -98 -21 -2984 0 -3082 20 -94 59 -164 130 -235 71 -71 141 -110 235 -130
99 -21 4263 -21 4362 0 94 20 164 59 235 130 71 71 110 141 130 235 21 98 21
2984 0 3082 -20 94 -59 164 -130 235 -71 71 -141 110 -235 130 -95 20 -4274
19 -4367 -1z m3690 -314 c-69 -62 -1493 -1175 -1504 -1175 -11 0 -1435 1113
-1504 1175 -6 5 659 9 1504 9 845 0 1510 -4 1504 -9z m-2459 -1260 c523 -402
952 -731 955 -731 3 0 424 322 935 716 512 394 942 725 958 736 l27 19 0
-1335 0 -1336 -1920 0 -1920 0 0 1336 c0 734 3 1333 8 1330 4 -2 435 -333 957
-735z"/>
</g>
</svg>
