<?xml version="1.0" standalone="no"?>
<!DOCTYPE svg PUBLIC "-//W3C//DTD SVG 20010904//EN"
 "http://www.w3.org/TR/2001/REC-SVG-20010904/DTD/svg10.dtd">
<svg version="1.0" xmlns="http://www.w3.org/2000/svg" viewBox="0 0 512.000000 512.000000"
 preserveAspectRatio="xMidYMid meet">

<g transform="translate(0.000000,512.000000) scale(0.100000,-0.100000)"
fill="" stroke="none">
<path d="M905 4598 c-136 -26 -282 -140 -344 -270 -46 -98 -60 -204 -39 -301
23 -103 60 -177 123 -245 306 -329 845 -117 845 333 0 314 -277 542 -585 483z"/>
<path d="M3380 3290 c-47 -10 -107 -26 -135 -35 -167 -58 -335 -186 -425 -327
l-40 -60 -2 188 -3 189 -407 3 -408 2 0 -1370 0 -1370 425 0 425 0 0 733 c0
730 5 849 36 972 37 144 125 259 236 310 114 52 297 58 412 15 111 -42 194
-145 230 -286 30 -117 36 -279 36 -1006 l0 -728 425 0 425 0 0 798 c0 825 -6
1007 -41 1202 -82 465 -318 711 -746 775 -135 20 -336 18 -443 -5z"/>
<path d="M580 1880 l0 -1370 425 0 425 0 0 1370 0 1370 -425 0 -425 0 0 -1370z"/>
</g>
</svg>
